<svg width="640" height="290" viewBox="0 0 640 290" xmlns="http://www.w3.org/2000/svg">
  <defs>
    <linearGradient id="barGrad" x1="0%" y1="0%" x2="100%" y2="0%">
      <stop offset="0%" stop-color="#6b6b6b"/>
      <stop offset="100%" stop-color="#ffffff"/>
    </linearGradient>
  </defs>

  <rect x="0" y="0" width="640" height="290" rx="10" fill="#000000"/>

  <text x="24" y="38" font-family="Segoe UI, Helvetica, Arial, sans-serif" font-size="18" font-weight="700" fill="#ffffff">Nível atual</text>

  <g font-family="Consolas, Menlo, monospace">
    <text x="24" y="78" font-size="15" fill="#ffffff">JavaScript</text>
    <rect x="160" y="67" width="360" height="14" rx="7" fill="#1e1e1e" stroke="#2d2d2d"/>
    <rect x="160" y="67" width="180" height="14" rx="7" fill="url(#barGrad)"/>
    <text x="544" y="79" font-size="14" fill="#9e9e9e">50%</text>

    <text x="24" y="116" font-size="15" fill="#ffffff">React</text>
    <rect x="160" y="105" width="360" height="14" rx="7" fill="#1e1e1e" stroke="#2d2d2d"/>
    <text x="544" y="117" font-size="14" fill="#9e9e9e">0%</text>

    <text x="24" y="154" font-size="15" fill="#ffffff">HTML / CSS</text>
    <rect x="160" y="143" width="360" height="14" rx="7" fill="#1e1e1e" stroke="#2d2d2d"/>
    <rect x="160" y="143" width="144" height="14" rx="7" fill="url(#barGrad)"/>
    <text x="544" y="155" font-size="14" fill="#9e9e9e">40%</text>

    <text x="24" y="192" font-size="15" fill="#ffffff">Node.js</text>
    <rect x="160" y="181" width="360" height="14" rx="7" fill="#1e1e1e" stroke="#2d2d2d"/>
    <rect x="160" y="181" width="180" height="14" rx="7" fill="url(#barGrad)"/>
    <text x="544" y="193" font-size="14" fill="#9e9e9e">50%</text>

    <text x="24" y="230" font-size="15" fill="#ffffff">TypeScript</text>
    <rect x="160" y="219" width="360" height="14" rx="7" fill="#1e1e1e" stroke="#2d2d2d"/>
    <text x="544" y="231" font-size="14" fill="#9e9e9e">0%</text>

    <text x="24" y="268" font-size="15" fill="#ffffff">Git</text>
    <rect x="160" y="257" width="360" height="14" rx="7" fill="#1e1e1e" stroke="#2d2d2d"/>
    <rect x="160" y="257" width="324" height="14" rx="7" fill="url(#barGrad)"/>
    <text x="544" y="269" font-size="14" fill="#9e9e9e">90%</text>
  </g>
</svg>
